<svg fill="none" height="24" viewBox="0 0 24 24" width="24" xmlns="http://www.w3.org/2000/svg"><circle cx="12" cy="12" fill="#fff" r="12"/><g clip-rule="evenodd" fill-rule="evenodd"><path d="m20 12.1814c0-.5673-.052-1.1127-.1485-1.6363h-7.6883v3.0945h4.3934c-.1893.9999-.7644 1.8472-1.629 2.4145v2.0072h2.6382c1.5436-1.3927 2.4342-3.4436 2.4342-5.8799z" fill="#1f87fc"/><path d="m12.1633 20c2.2041 0 4.052-.7164 5.4026-1.9382l-2.6382-2.0072c-.731.48-1.6661.7636-2.7644.7636-2.1262 0-3.92578-1.4072-4.56771-3.2981h-2.72727v2.0727c1.34322 2.6145 4.10389 4.4072 7.29498 4.4072z" fill="#00ab47"/><path d="m7.59555 13.52c-.16327-.48-.25603-.9927-.25603-1.52 0-.5272.09276-1.0399.25603-1.5199v-2.07272h-2.72728c-.55287 1.07998-.86827 2.30182-.86827 3.59262 0 1.2909.3154 2.5127.86827 3.5927z" fill="#ffb900"/><path d="m12.1632 7.18176c1.1986 0 2.2746.40363 3.1206 1.19634l2.3414-2.2945c-1.4137-1.29089-3.2616-2.0836-5.462-2.0836-3.19105 0-5.95172 1.79269-7.29494 4.40719l2.72727 2.07271c.64193-1.8909 2.44157-3.29814 4.56767-3.29814z" fill="#fe2b25"/></g></svg>